<svg xmlns="http://www.w3.org/2000/svg" width="34" height="44" viewBox="0 0 34 44">
  <g fill="none" fill-rule="evenodd">
    <path fill="#48A1E6" fill-opacity=".102" d="M7 4h16l11 11v26a3 3 0 0 1-3 3H7a3 3 0 0 1-3-3V7a3 3 0 0 1 3-3z"/>
    <path stroke="#48A1E6" d="M29.5 11.207L18.793.5H5A4.5 4.5 0 0 0 .5 5v30A4.5 4.5 0 0 0 5 39.5h20a4.5 4.5 0 0 0 4.5-4.5V11.207z"/>
    <path fill="#48A1E6" fill-opacity=".179" d="M18 0l12 12v2h-6a6 6 0 0 1-6-6V0z"/>
    <path stroke="#48A1E6" d="M18.5.5V7a4.5 4.5 0 0 0 4.5 4.5h6.5v-.293L18.793.5H18.5z"/>
    <!--<rect width="25" height="13" x="9" y="20" fill="#48A1E6" rx="2"/>-->
    <!--<text fill="#FFF" font-family="Circe-ExtraBold, Circe" font-size="8" font-weight="600">-->
      <!--<tspan x="13" y="29">PDF.</tspan>-->
    <!--</text>-->
  </g>
</svg>
